<?xml version="1.0" standalone="no"?>
<!DOCTYPE svg PUBLIC "-//W3C//DTD SVG 20010904//EN"
 "http://www.w3.org/TR/2001/REC-SVG-20010904/DTD/svg10.dtd">
<svg version="1.0" xmlns="http://www.w3.org/2000/svg"
 width="2135.000000pt" height="2206.000000pt" viewBox="0 0 2135.000000 2206.000000"
 preserveAspectRatio="xMidYMid meet">

<g transform="translate(0.000000,2206.000000) scale(0.100000,-0.100000)"
fill="#000000" stroke="none">
<path d="M10265 22053 c-482 -29 -801 -64 -1212 -133 -1678 -284 -3262 -995
-4606 -2067 -903 -720 -1688 -1601 -2300 -2583 -227 -365 -504 -889 -671
-1270 -971 -2216 -1119 -4700 -420 -7017 386 -1280 1051 -2513 1908 -3538
1155 -1382 2606 -2411 4281 -3035 903 -336 1804 -530 2825 -606 279 -22 1058
-25 1315 -6 546 40 927 90 1387 183 1795 360 3469 1212 4833 2459 202 184 606
597 779 795 1900 2172 2778 4980 2455 7850 -199 1774 -879 3477 -1964 4920
-1245 1656 -2947 2885 -4900 3539 -852 286 -1731 453 -2659 506 -157 9 -918
11 -1051 3z m1060 -214 c1598 -89 3151 -567 4530 -1392 192 -115 570 -365 750
-497 1675 -1225 2929 -2936 3580 -4885 467 -1396 615 -2853 440 -4330 -234
-1976 -1063 -3827 -2403 -5363 -188 -216 -689 -717 -907 -907 -1479 -1290
-3236 -2101 -5140 -2374 -503 -72 -853 -96 -1415 -96 -459 1 -594 7 -990 46
-2599 256 -5011 1553 -6687 3593 -476 580 -875 1200 -1217 1886 -597 1201
-916 2390 -1018 3795 -16 224 -16 977 0 1215 53 771 174 1464 378 2165 573
1966 1747 3711 3365 5001 905 722 1935 1282 3034 1649 1188 397 2443 565 3700
494z"/>
<path d="M13170 16554 c-97 -20 -198 -60 -286 -111 -104 -60 -245 -201 -304
-303 -24 -41 -45 -77 -47 -79 -1 -2 -27 21 -56 51 -100 105 -226 167 -376 188
-131 18 -181 -9 -181 -99 0 -44 1 -46 160 -205 l159 -161 -150 4 c-248 6 -437
-29 -615 -113 -273 -129 -450 -331 -548 -626 -56 -167 -70 -267 -70 -485 0
-166 3 -202 23 -285 64 -255 180 -459 371 -650 331 -331 789 -510 1303 -510
239 0 413 28 629 100 267 89 475 216 664 404 216 216 343 448 389 710 20 115
19 348 -1 485 -18 128 -80 318 -135 417 -121 220 -310 385 -542 472 -163 61
-255 76 -484 76 l-202 1 154 155 c156 157 174 184 160 238 -8 34 -43 72 -67
72 -10 0 -18 4 -18 10 0 17 104 42 203 47 l97 6 0 103 0 104 -82 -1 c-46 0
-112 -7 -148 -15z"/>
<path d="M8169 16215 c-468 -76 -855 -325 -1104 -711 -205 -319 -286 -668
-244 -1056 22 -203 97 -434 197 -604 111 -190 308 -408 452 -502 47 -30 87
-58 90 -61 24 -29 210 -115 346 -161 203 -67 417 -91 643 -71 513 46 894 272
1184 704 119 177 193 349 240 555 19 84 22 128 22 322 0 243 -11 325 -71 508
-37 114 -144 326 -211 420 -237 330 -583 557 -981 643 -127 27 -435 35 -563
14z m-289 -332 c16 -27 42 -71 57 -99 l26 -51 -163 -242 c-99 -146 -174 -248
-189 -256 -14 -7 -109 -48 -211 -90 l-185 -77 -31 36 c-63 73 -69 167 -16 279
66 143 191 290 340 402 104 78 170 111 253 129 90 20 86 21 119 -31z m1180 16
c215 -59 396 -212 549 -463 l63 -105 -26 -78 c-24 -71 -89 -193 -103 -193 -3
0 -42 23 -88 50 -112 68 -194 105 -292 132 l-81 23 -31 81 c-38 99 -107 215
-195 328 -36 46 -66 91 -66 98 0 7 23 43 50 81 49 66 50 67 98 67 26 0 81 -9
122 -21z m-374 -236 c135 -139 264 -365 264 -461 0 -26 -80 -184 -130 -257
-15 -22 -37 -60 -50 -85 -29 -58 -56 -87 -105 -113 -36 -18 -66 -21 -315 -28
-151 -5 -282 -6 -290 -4 -16 6 -28 25 -181 292 -55 94 -99 181 -99 193 0 11
23 56 52 98 133 199 252 364 272 377 22 14 237 31 434 33 l102 2 46 -47z
m1128 -657 c68 -255 66 -507 -5 -766 -12 -41 -24 -80 -28 -87 -3 -7 -34 28
-74 85 -63 90 -68 100 -63 137 3 22 9 117 12 212 5 140 4 189 -11 267 l-17 96
68 105 68 106 13 -32 c7 -17 24 -72 37 -123z m-2729 29 l47 -75 -13 -73 c-17
-90 -16 -350 0 -436 l12 -64 -48 -118 c-28 -71 -50 -113 -55 -106 -13 24 -48
161 -64 252 -21 117 -20 332 1 450 20 111 56 245 66 245 4 0 28 -34 54 -75z
m1746 -664 c77 -129 139 -245 139 -257 0 -24 -237 -425 -273 -462 -23 -22 -30
-23 -288 -29 -299 -7 -298 -7 -363 69 -41 48 -225 317 -250 365 -31 62 -23 88
77 240 50 77 106 165 122 194 52 91 59 93 263 96 97 2 227 7 287 12 61 4 118
8 129 7 13 -1 58 -67 157 -235z m-1408 -242 c45 -21 115 -47 155 -57 l72 -18
45 -92 c53 -109 101 -183 202 -310 86 -107 85 -104 21 -202 -58 -87 -79 -96
-171 -76 -136 31 -235 95 -383 249 -104 107 -157 183 -195 281 -36 91 -36 126
1 226 49 132 41 127 111 79 33 -22 97 -58 142 -80z m2166 59 c82 -110 94 -193
43 -301 -42 -92 -103 -177 -186 -265 -124 -130 -243 -201 -408 -244 -103 -27
-90 -34 -181 98 l-56 81 53 71 c69 93 127 189 196 325 l55 110 125 47 c69 26
166 66 215 88 50 23 93 42 97 42 4 0 25 -24 47 -52z"/>
<path d="M4340 14640 l0 -1330 150 0 150 0 0 615 0 615 485 0 485 0 0 125 0
125 -485 0 -485 0 0 465 0 465 545 0 545 0 0 125 0 125 -695 0 -695 0 0 -1330z"/>
<path d="M15720 15961 c-63 -5 -159 -12 -212 -16 l-98 -7 0 -1298 0 -1297 46
-7 c231 -31 721 -32 943 -1 317 44 532 121 709 255 230 173 375 413 444 735
29 134 31 415 5 550 -56 284 -175 522 -351 700 -201 202 -469 319 -846 371
-128 17 -483 25 -640 15z m415 -221 c230 -21 448 -76 595 -150 243 -122 428
-347 518 -630 69 -217 73 -471 11 -699 -62 -231 -214 -443 -392 -549 -137 -82
-318 -140 -524 -167 -181 -24 -512 -18 -655 11 l-28 6 0 1083 0 1083 73 10
c100 13 271 14 402 2z"/>
<path d="M11020 12200 l0 -100 270 0 270 0 0 -690 0 -690 110 0 110 0 0 690 0
690 265 0 265 0 0 100 0 100 -645 0 -645 0 0 -100z"/>
<path d="M13080 11510 l0 -790 110 0 110 0 0 790 0 790 -110 0 -110 0 0 -790z"/>
<path d="M14180 11510 l0 -790 100 0 100 0 2 589 3 590 490 -587 490 -587 73
-3 72 -3 0 791 0 790 -100 0 -100 0 -2 -586 -3 -587 -487 587 -488 586 -75 0
-75 0 0 -790z"/>
<path d="M16160 12292 c0 -5 128 -199 285 -431 l285 -423 0 -359 0 -359 110 0
110 0 0 353 0 352 281 425 c155 234 284 431 286 438 4 9 -23 12 -113 12 l-119
-1 -215 -324 c-118 -178 -217 -325 -220 -325 -3 0 -104 147 -224 325 l-219
325 -124 0 c-68 0 -123 -4 -123 -8z"/>
<path d="M5950 12123 c-53 -9 -157 -46 -206 -74 -118 -67 -211 -183 -260 -324
-24 -70 -28 -96 -28 -205 -1 -104 3 -138 23 -200 34 -112 78 -187 152 -261
275 -277 785 -202 952 141 52 106 67 175 67 306 0 200 -51 336 -175 459 -82
82 -144 118 -251 145 -72 19 -203 25 -274 13z m242 -193 c101 -38 196 -137
239 -248 27 -72 37 -226 19 -303 -61 -258 -315 -384 -555 -275 -105 48 -198
164 -231 290 -20 76 -18 212 5 287 44 141 152 239 295 269 59 13 167 3 228
-20z"/>
<path d="M7400 12115 c-8 -2 -50 -7 -92 -10 l-78 -7 0 -594 0 -594 95 0 95 0
0 235 0 235 49 0 48 0 163 -235 163 -235 108 0 c61 0 109 4 109 9 0 5 -76 117
-170 248 -93 131 -170 240 -170 243 0 3 20 13 45 23 140 58 222 222 196 388
-31 191 -168 286 -425 294 -67 2 -128 2 -136 0z m219 -176 c68 -14 112 -45
139 -99 50 -100 12 -208 -93 -263 -31 -16 -63 -22 -142 -25 l-103 -4 0 194 c0
107 3 198 7 201 10 11 137 8 192 -4z"/>
<path d="M4330 11510 l0 -600 90 0 90 0 0 265 0 265 200 0 200 0 0 80 0 80
-200 0 -200 0 0 170 0 170 225 0 225 0 0 85 0 85 -315 0 -315 0 0 -600z"/>
<path d="M8262 9690 c-154 -21 -281 -81 -387 -181 -126 -120 -192 -269 -202
-456 -23 -421 237 -729 632 -750 280 -15 523 115 638 342 56 113 72 188 72
350 0 129 -3 160 -23 225 -73 233 -239 400 -452 454 -75 19 -202 26 -278 16z
m211 -200 c170 -53 291 -194 332 -387 52 -243 -46 -473 -242 -570 -67 -33 -85
-38 -170 -41 -117 -5 -199 14 -281 67 -147 95 -232 265 -232 461 0 237 127
419 331 474 79 21 185 20 262 -4z"/>
<path d="M11975 9690 c-334 -39 -570 -289 -600 -637 -25 -286 118 -555 357
-672 127 -62 189 -75 358 -75 170 0 254 19 385 87 l80 42 3 293 2 292 -230 0
-230 0 0 -85 0 -85 135 0 135 0 0 -154 0 -154 -50 -21 c-191 -82 -447 -35
-591 109 -90 90 -137 200 -146 345 -18 303 187 535 472 535 128 0 252 -43 358
-124 l47 -36 55 75 c30 41 55 79 55 84 0 12 -53 52 -121 90 -80 45 -190 80
-289 91 -92 11 -96 11 -185 0z"/>
<path d="M16760 9690 c-193 -33 -320 -197 -308 -399 10 -170 88 -255 332 -362
127 -56 190 -103 217 -163 50 -110 -11 -238 -129 -272 -115 -34 -241 5 -366
111 -37 31 -69 55 -71 53 -2 -1 -13 -41 -25 -88 -11 -47 -23 -93 -26 -102 -4
-13 14 -30 70 -67 100 -65 178 -91 296 -98 150 -9 257 26 351 114 59 55 94
126 109 218 15 91 5 167 -31 242 -43 89 -97 132 -287 226 -179 88 -237 133
-248 191 -15 80 23 157 96 194 86 43 193 21 305 -63 l60 -45 42 87 41 88 -31
28 c-52 46 -165 96 -242 107 -79 11 -91 11 -155 0z"/>
<path d="M4310 9580 l0 -90 230 0 230 0 0 -580 0 -580 95 0 95 0 0 580 0 580
225 0 225 0 0 90 0 90 -550 0 -550 0 0 -90z"/>
<path d="M6060 9000 l0 -670 95 0 95 0 0 305 0 305 330 0 330 0 0 -305 0 -305
100 0 100 0 0 670 0 670 -100 0 -100 0 0 -275 0 -275 -330 0 -330 0 0 275 0
275 -95 0 -95 0 0 -670z"/>
<path d="M9690 9182 c0 -525 2 -547 54 -650 45 -90 150 -168 276 -206 82 -25
259 -32 347 -13 146 32 279 120 336 224 56 105 59 136 64 656 l5 477 -101 0
-101 0 0 -443 c0 -454 -5 -529 -40 -597 -96 -187 -464 -201 -591 -22 -53 75
-53 73 -57 585 l-3 477 -95 0 -94 0 0 -488z"/>
<path d="M13290 9000 l0 -670 100 0 100 0 0 305 0 305 330 0 330 0 0 -305 0
-305 95 0 95 0 0 670 0 670 -95 0 -95 0 0 -275 0 -275 -330 0 -330 0 0 275 0
275 -100 0 -100 0 0 -670z"/>
<path d="M14900 9580 l0 -90 225 0 225 0 0 -580 0 -580 100 0 100 0 0 580 0
580 225 0 225 0 0 90 0 90 -550 0 -550 0 0 -90z"/>
<path d="M10122 6700 c-107 -28 -187 -75 -273 -160 -121 -120 -179 -260 -179
-435 0 -192 81 -363 229 -482 32 -26 240 -243 462 -482 l402 -434 36 39 c178
196 805 864 812 864 21 0 140 137 172 198 61 117 72 164 72 297 0 147 -24 232
-97 342 -125 186 -316 281 -543 270 -160 -7 -287 -62 -399 -171 l-53 -52 -68
64 c-73 69 -167 120 -270 147 -81 20 -213 18 -303 -5z"/>
<path d="M200 7248 c-73 -28 -160 -115 -183 -182 -22 -64 -22 -168 0 -228 38
-106 136 -192 228 -200 l39 -3 11 78 c11 76 11 77 -10 77 -63 0 -144 107 -130
170 23 102 176 173 262 120 57 -34 83 -124 53 -180 -15 -27 -9 -34 71 -78 l56
-32 19 42 c28 63 26 186 -5 256 -32 70 -115 146 -183 167 -72 21 -162 18 -228
-7z"/>
<path d="M20771 7242 c-56 -109 -171 -376 -165 -382 22 -20 557 -261 563 -253
10 11 181 381 181 391 0 9 -104 62 -123 62 -7 0 -37 -53 -67 -117 -29 -65 -55
-119 -56 -121 -1 -2 -20 6 -43 17 l-40 21 16 37 c8 21 29 64 45 97 16 32 28
59 26 61 -11 10 -110 55 -120 55 -8 0 -33 -43 -57 -95 l-43 -94 -36 15 c-20 8
-38 16 -40 19 -2 2 19 54 47 116 29 61 50 116 49 120 -2 5 -31 22 -65 39 -57
26 -64 28 -72 12z"/>
<path d="M552 6481 c-145 -82 -265 -151 -268 -154 -7 -7 66 -138 80 -143 7 -3
57 21 111 51 55 31 101 53 102 48 2 -4 23 -42 47 -83 25 -41 41 -78 38 -82 -4
-3 -41 -25 -82 -48 -41 -23 -85 -48 -97 -56 l-23 -14 33 -58 c17 -31 37 -65
43 -75 10 -17 35 -5 282 134 150 84 272 156 272 160 0 4 -18 39 -41 78 l-41
71 -31 -18 c-57 -34 -164 -92 -170 -92 -6 0 -82 126 -93 153 -4 10 19 28 78
60 132 73 126 61 80 142 -21 38 -43 70 -48 71 -5 2 -127 -64 -272 -145z"/>
<path d="M20482 6558 c-88 -43 -162 -178 -147 -268 19 -115 142 -187 250 -145
25 9 74 43 110 76 69 62 97 72 115 39 22 -41 -39 -119 -105 -136 -23 -6 -26
-11 -22 -34 3 -15 9 -50 13 -79 4 -28 10 -51 14 -51 3 0 27 7 53 16 109 37
207 172 207 286 0 32 -7 72 -14 87 -22 42 -81 89 -127 101 -80 22 -138 -3
-257 -112 -45 -41 -58 -43 -76 -15 -15 24 17 80 60 103 19 10 33 23 30 29 -2
5 -12 36 -22 68 -10 31 -22 57 -28 57 -6 0 -31 -10 -54 -22z"/>
<path d="M20120 5923 c-48 -25 -64 -41 -121 -128 -75 -112 -115 -182 -109
-188 10 -7 514 -322 521 -325 4 -2 23 21 42 50 64 101 65 91 -11 137 -37 23
-73 45 -81 50 -10 6 -10 13 -2 28 10 19 18 20 123 16 l113 -5 47 75 c37 60 43
77 31 81 -8 3 -65 6 -126 6 l-112 0 -2 41 c-6 97 -91 176 -200 186 -50 4 -66
1 -113 -24z m119 -158 c49 -25 53 -57 15 -120 l-25 -44 -57 37 c-31 20 -58 37
-60 38 -7 4 21 49 46 77 29 31 42 33 81 12z"/>
<path d="M990 5754 c-135 -86 -251 -162 -259 -169 -12 -11 -7 -24 29 -82 23
-37 44 -69 45 -71 4 -4 506 316 521 331 9 9 1 29 -32 80 -24 37 -47 67 -51 67
-5 0 -118 -70 -253 -156z"/>
<path d="M1240 5353 c-154 -110 -245 -181 -244 -192 0 -11 182 -280 230 -340
4 -5 100 57 114 74 10 12 -2 34 -60 116 -40 55 -68 104 -64 109 5 4 90 65 189
135 99 70 181 131 183 136 4 10 -86 139 -96 138 -4 0 -117 -79 -252 -176z"/>
<path d="M19678 5314 l-48 -66 23 -18 c12 -9 88 -65 170 -124 81 -59 152 -116
157 -126 18 -34 11 -68 -24 -104 -54 -58 -60 -55 -273 100 -81 59 -152 107
-158 108 -7 1 -34 -28 -60 -63 -39 -53 -45 -66 -33 -77 7 -7 85 -65 173 -129
174 -126 233 -153 309 -141 86 14 168 85 214 184 34 76 29 171 -12 231 -28 40
-340 279 -376 288 -9 2 -33 -22 -62 -63z"/>
<path d="M1662 4796 c-123 -101 -231 -190 -239 -199 -14 -14 -8 -25 70 -120
48 -58 103 -119 124 -136 109 -90 277 -79 393 26 67 60 102 129 107 213 7 96
-18 152 -128 288 -50 61 -94 112 -97 111 -4 0 -107 -83 -230 -183z m257 -88
c42 -57 43 -118 2 -175 -48 -66 -140 -100 -194 -72 -26 14 -87 70 -87 80 0 6
239 209 246 209 1 0 16 -19 33 -42z"/>
<path d="M19241 4630 c-101 -21 -199 -100 -244 -198 -31 -66 -31 -197 -1 -263
31 -66 87 -124 152 -156 49 -24 69 -28 142 -28 73 0 93 4 141 28 63 31 126 93
160 159 17 32 24 66 27 130 4 76 1 92 -20 140 -35 76 -80 123 -151 157 -69 33
-140 44 -206 31z m133 -191 c116 -79 113 -218 -6 -277 -40 -20 -52 -22 -85
-13 -91 25 -162 113 -150 187 7 43 40 90 81 116 41 25 112 20 160 -13z"/>
<path d="M2173 4162 c-121 -114 -222 -211 -222 -216 -1 -10 98 -126 109 -126
4 0 37 28 74 61 60 55 69 60 82 47 14 -14 12 -27 -17 -122 l-33 -107 65 -65
65 -65 36 118 37 118 69 0 c58 0 75 4 110 28 92 60 127 173 84 270 -18 42
-214 268 -230 266 -4 0 -107 -93 -229 -207z m308 -111 c8 -21 -16 -67 -42 -82
-30 -16 -59 -5 -99 36 l-35 36 53 51 53 51 32 -38 c18 -21 35 -46 38 -54z"/>
<path d="M18660 4017 c-89 -25 -167 -95 -209 -187 -26 -56 -28 -166 -5 -234
22 -63 101 -148 171 -182 79 -39 184 -40 265 -2 68 32 137 99 168 164 22 48
31 168 15 194 -7 12 -42 9 -118 -11 -38 -10 -39 -12 -33 -44 9 -45 -12 -92
-59 -134 -35 -31 -42 -33 -92 -29 -40 4 -62 12 -91 35 -76 62 -101 145 -62
209 26 40 100 79 139 71 27 -6 27 -5 40 69 7 42 10 78 7 81 -12 12 -94 12
-136 0z"/>
<path d="M2725 3608 c-110 -116 -206 -219 -212 -229 -11 -15 7 -36 148 -170
l160 -152 49 48 c28 27 50 54 50 61 0 6 -43 51 -96 99 l-95 88 33 34 32 33 46
-43 c25 -23 60 -56 78 -72 l32 -29 50 49 50 49 -77 78 -77 78 28 29 29 30 92
-84 c51 -47 95 -85 98 -85 11 0 92 92 92 104 0 10 -287 288 -303 293 -4 2 -97
-93 -207 -209z"/>
<path d="M3283 3158 c-93 -111 -185 -224 -206 -249 l-37 -46 48 -39 c26 -22
54 -45 64 -52 14 -11 28 1 111 102 l96 115 10 -52 c6 -28 22 -115 36 -192 40
-221 46 -246 55 -243 4 2 98 113 209 248 l202 245 -38 33 c-21 19 -50 42 -64
53 l-27 19 -93 -114 c-52 -63 -95 -113 -97 -112 -1 2 -22 110 -46 240 -24 130
-46 240 -49 242 -3 3 -81 -86 -174 -198z"/>
<path d="M17743 3187 c-52 -19 -120 -73 -150 -118 -23 -35 -28 -53 -28 -104 0
-51 5 -69 28 -102 60 -87 144 -103 285 -53 46 16 89 27 97 24 67 -26 -34 -131
-117 -121 l-37 5 -15 -69 c-9 -37 -16 -73 -16 -80 0 -8 23 -10 78 -7 92 4 151
29 216 93 59 57 79 98 78 161 0 63 -18 99 -71 147 -60 54 -109 58 -227 18
-105 -35 -117 -37 -133 -17 -27 32 36 86 99 86 28 0 30 2 30 38 0 20 3 54 6
75 l7 37 -49 -1 c-27 0 -63 -6 -81 -12z"/>
<path d="M4007 2748 l-57 -93 32 -27 c65 -53 74 -55 105 -17 15 18 47 55 71
83 23 27 42 52 42 55 -1 8 -116 91 -126 91 -5 0 -35 -42 -67 -92z"/>
<path d="M17183 2752 c-111 -45 -173 -122 -173 -216 0 -79 41 -141 113 -171
50 -21 89 -19 187 9 60 18 89 22 102 15 27 -14 22 -41 -13 -75 -27 -25 -38
-29 -90 -29 l-60 0 -19 -66 c-11 -36 -20 -71 -20 -77 0 -16 64 -26 117 -18
107 14 227 99 259 182 23 59 14 125 -23 177 -59 85 -132 100 -281 57 -76 -22
-84 -23 -99 -8 -8 9 -13 24 -10 32 10 24 68 56 104 56 30 0 32 2 38 48 14 102
16 97 -40 99 -29 1 -68 -5 -92 -15z"/>
<path d="M4375 2521 c-67 -30 -116 -106 -115 -176 1 -39 28 -95 79 -163 56
-76 61 -96 30 -112 -40 -22 -129 59 -129 116 0 21 -5 24 -34 24 -18 0 -54 -3
-80 -6 -41 -6 -46 -9 -46 -33 0 -41 45 -126 88 -168 54 -52 127 -90 187 -98
61 -8 123 21 168 76 60 76 53 168 -22 266 -69 91 -75 101 -61 118 7 8 21 15
32 15 27 0 88 -63 88 -90 0 -16 5 -20 18 -16 9 2 43 10 75 17 56 12 58 14 52
38 -27 110 -152 212 -259 211 -17 0 -49 -9 -71 -19z"/>
<path d="M16540 2319 c-96 -61 -177 -112 -179 -114 -2 -2 72 -124 164 -269
105 -167 172 -263 179 -259 21 12 361 226 365 229 6 6 -63 116 -76 121 -7 3
-62 -26 -122 -65 l-109 -70 -26 39 -26 39 76 47 c120 76 111 64 82 114 -52 87
-42 86 -143 20 l-91 -58 -22 34 c-13 18 -21 37 -18 41 3 5 50 37 105 71 56 35
101 67 101 73 0 13 -68 118 -77 118 -5 0 -87 -50 -183 -111z"/>
<path d="M16048 2023 c-38 -21 -68 -41 -68 -45 0 -4 30 -62 66 -128 36 -67 64
-124 61 -126 -3 -3 -103 15 -222 40 -234 50 -258 53 -253 33 7 -29 291 -547
299 -547 14 0 127 58 133 68 3 5 -24 64 -60 131 -36 67 -64 125 -61 127 3 3
109 -16 236 -42 127 -26 234 -45 237 -41 6 5 -260 512 -288 550 -12 15 -19 13
-80 -20z"/>
<path d="M5193 1751 c-79 -148 -143 -273 -143 -279 0 -10 349 -202 368 -202 8
0 72 109 72 123 0 3 -48 32 -107 63 -60 32 -110 58 -111 60 -2 1 43 92 101
201 58 109 107 204 109 212 2 8 -25 29 -67 52 -38 21 -72 39 -75 39 -3 0 -69
-121 -147 -269z"/>
<path d="M5875 1553 c-38 -82 -97 -208 -132 -281 l-62 -132 74 -37 c48 -24 78
-34 84 -28 12 12 261 539 261 552 0 10 -123 73 -143 73 -7 0 -44 -66 -82 -147z"/>
<path d="M15088 1547 c-38 -17 -68 -34 -68 -37 0 -7 249 -562 255 -568 2 -2
376 162 392 172 5 3 -57 131 -64 133 -4 2 -57 -20 -117 -47 -61 -28 -113 -47
-116 -43 -4 5 -48 101 -100 216 -51 114 -98 207 -104 206 -6 0 -41 -15 -78
-32z"/>
<path d="M6353 1493 c-4 -10 -55 -137 -115 -282 -59 -146 -108 -268 -108 -271
0 -6 141 -70 154 -70 2 0 21 43 42 95 22 52 44 95 49 95 6 0 48 -16 94 -35 45
-19 88 -35 95 -35 10 0 71 130 63 135 -1 1 -46 19 -99 40 -54 21 -98 42 -98
46 0 4 9 28 20 53 22 52 5 53 153 -8 48 -20 91 -34 96 -32 15 10 54 127 45
135 -12 11 -359 151 -374 151 -6 0 -14 -8 -17 -17z"/>
<path d="M14461 1294 c-36 -13 -67 -27 -69 -29 -4 -4 205 -572 215 -584 4 -6
392 139 398 149 4 6 -38 127 -48 136 -1 2 -54 -17 -117 -41 -63 -24 -118 -41
-122 -37 -3 4 -42 101 -86 217 -47 124 -85 211 -93 212 -8 1 -43 -9 -78 -23z"/>
<path d="M6891 970 l-99 -299 201 -67 c111 -37 207 -69 214 -71 11 -4 62 132
52 140 -2 3 -56 21 -119 42 -63 21 -119 41 -123 45 -5 4 -3 26 3 48 l13 40
100 -34 c56 -19 104 -31 108 -27 3 5 15 35 26 69 l21 61 -104 33 c-112 37
-108 31 -83 97 l8 22 122 -41 c80 -27 124 -37 128 -30 18 30 43 123 35 131 -5
5 -98 38 -206 74 l-197 65 -100 -298z"/>
<path d="M13928 1116 c-109 -34 -200 -64 -203 -67 -5 -5 170 -588 179 -597 5
-4 408 118 419 128 4 3 -2 37 -13 74 -25 78 -9 76 -180 22 l-105 -33 -12 41
c-7 22 -13 43 -13 46 0 3 45 18 100 35 68 19 100 34 100 44 0 28 -34 121 -44
121 -6 0 -54 -14 -106 -30 -52 -16 -96 -30 -96 -30 -1 0 -5 12 -8 28 -4 15 -9
34 -12 43 -3 13 21 24 121 54 101 31 125 42 120 54 -4 9 -13 42 -22 74 -9 31
-19 57 -22 56 -3 -1 -95 -29 -203 -63z"/>
<path d="M7736 1009 c-87 -20 -136 -87 -136 -187 0 -72 23 -111 94 -162 88
-63 118 -93 111 -113 -18 -45 -126 -17 -161 42 -10 17 -24 31 -30 31 -25 0
-134 -53 -134 -65 0 -19 55 -90 89 -114 88 -63 216 -87 296 -57 70 27 115 101
115 190 0 64 -35 113 -128 179 -83 60 -100 87 -64 105 26 14 77 -5 106 -38
l25 -30 60 36 c34 20 61 40 61 45 0 5 -18 29 -40 53 -64 69 -175 105 -264 85z"/>
<path d="M13405 963 c-33 -8 -62 -19 -66 -24 -3 -6 -14 -73 -24 -150 l-18
-139 -98 131 c-115 153 -106 156 -139 -36 -12 -66 -24 -126 -26 -134 -2 -8
-40 38 -86 105 -44 66 -82 120 -83 122 -4 4 -159 -31 -168 -38 -10 -9 371
-560 387 -560 7 0 24 63 45 170 18 93 37 168 41 165 3 -2 51 -63 105 -135 54
-71 104 -130 112 -130 7 0 13 2 13 6 0 3 23 145 50 315 28 170 50 319 50 329
0 23 -11 24 -95 3z"/>
<path d="M8262 826 c-7 -35 -12 -68 -12 -74 0 -5 32 -16 70 -23 39 -7 73 -16
76 -20 3 -5 -16 -108 -41 -229 -25 -122 -45 -225 -45 -229 0 -8 160 -44 166
-38 2 2 24 106 50 232 25 127 47 231 48 232 0 1 34 -5 74 -14 41 -8 76 -12 79
-9 10 9 32 131 25 137 -6 5 -456 100 -473 99 -3 0 -11 -29 -17 -64z"/>
<path d="M8950 756 c0 -3 37 -97 81 -208 l81 -203 -16 -114 c-12 -84 -13 -117
-5 -122 23 -14 152 -21 159 -9 4 7 13 59 20 118 l12 105 131 174 c71 95 128
175 126 178 -6 5 -127 25 -156 25 -16 0 -39 -24 -88 -96 -37 -53 -71 -92 -75
-87 -4 4 -22 51 -40 103 -18 52 -37 100 -42 106 -5 7 -39 15 -76 19 -37 3 -77
9 -89 12 -13 3 -23 2 -23 -1z"/>
<path d="M11740 678 c-106 -30 -148 -130 -100 -237 l20 -44 -39 -33 c-99 -85
-89 -232 21 -294 60 -35 199 -36 270 -3 30 14 50 18 54 12 6 -11 168 -2 191
10 8 4 -5 26 -39 64 l-51 59 18 36 c9 20 20 65 23 100 l5 62 -40 0 c-84 0
-101 -8 -109 -53 l-6 -41 -35 38 -35 38 36 36 c87 86 60 221 -50 251 -47 13
-87 13 -134 -1z m90 -140 c0 -11 -5 -29 -11 -40 -11 -21 -12 -21 -25 -3 -17
24 -18 62 -1 68 20 7 37 -4 37 -25z m-11 -351 c-45 -12 -83 10 -87 51 -2 18 2
40 10 49 11 14 18 9 60 -38 l47 -54 -30 -8z"/>
<path d="M9760 627 c0 -37 -26 -436 -35 -533 l-5 -61 210 -13 c116 -7 213 -11
215 -8 3 2 8 37 11 76 l7 72 -49 0 c-27 0 -85 3 -129 6 l-80 7 15 237 15 238
-65 6 c-111 10 -110 10 -110 -27z"/>
<path d="M10440 310 l0 -310 225 0 225 0 0 70 0 70 -140 0 -140 0 0 50 0 50
110 0 110 0 0 70 0 70 -110 0 -110 0 0 45 0 45 135 0 135 0 0 75 0 75 -220 0
-220 0 0 -310z"/>
</g>
</svg>
